<?xml version="1.0" standalone="no"?><!DOCTYPE svg PUBLIC "-//W3C//DTD SVG 1.1//EN" "http://www.w3.org/Graphics/SVG/1.1/DTD/svg11.dtd"><svg t="1600086554687" class="icon" viewBox="0 0 1024 1024" version="1.1" xmlns="http://www.w3.org/2000/svg" p-id="4808" xmlns:xlink="http://www.w3.org/1999/xlink" width="200" height="200"><defs><style type="text/css"></style></defs><path d="M278.464 93.33333334a24 24 0 0 1 3.232 47.776l-3.232 0.224H276.48a104 104 0 0 0-102.048 84l-0.96 5.888-65.792 480a104 104 0 0 0 97.152 117.952l5.888 0.16h602.56a104 104 0 0 0 103.68-112.256l-0.64-5.856-65.76-480a104 104 0 0 0-97.088-89.728l-5.952-0.16H416.384a24 24 0 0 1-3.232-47.776l3.232-0.224H747.52a152 152 0 0 1 149.44 124.384l1.152 6.976 65.76 480a152 152 0 0 1-143.68 172.48l-6.912 0.16H210.72a152 152 0 0 1-151.36-165.76l0.768-6.88 65.76-480a152 152 0 0 1 143.52-131.2l9.056-0.16z" fill="#979797" p-id="4809" style="user-select: auto;"></path><path d="M512 429.33333334A184 184 0 0 0 696 245.33333334a24 24 0 1 0-48 0 136 136 0 1 1-272 0 24 24 0 0 0-48 0A184 184 0 0 0 512 429.33333334z" fill="#979797" p-id="4810" style="user-select: auto;"></path></svg>